<?xml version="1.0" encoding="UTF-8"?>
<!-- Created with Inkscape (http://www.inkscape.org/) -->
<svg width="250mm" height="250mm" version="1.1" viewBox="0 0 250 250" xmlns="http://www.w3.org/2000/svg" xmlns:xlink="http://www.w3.org/1999/xlink">
 <path d="m188.37 76.392-64.494-47.057-64.623 47.228 23.438 77.002 80.77-0.27118-17.272-28.217-58.673-41.743 71.666 0.30453-57.178 41.398 22.045-66.531" fill="none" stroke="#ff0" stroke-linejoin="bevel" stroke-width="7.6814"/>
 <g transform="matrix(.72581 0 0 .72581 23.98 -17.917)">
  <g transform="translate(30.621 9.4779)" fill="none" stroke="#7f7e7e" stroke-width="2.1167">
   <path d="m195.87 120.46-88.858-64.834-89.037 65.07 32.292 106.09 111.28-0.37363z"/>
   <path d="m107.01 55.625 0.23578 40.191"/>
   <path d="m155.65 130.44 40.217-9.9833"/>
   <path d="m56.914 130.02-38.939-9.3282"/>
   <path d="m76.875 187.48-26.608 39.307"/>
   <path d="m137.75 187.54 23.797 38.877"/>
   <path d="m76.875 187.48 30.373-91.664 30.505 91.72-80.839-57.513 98.74 0.41959-78.779 57.037"/>
  </g>
  <text x="55.150673" y="315.83347" fill="#fefefe" font-family="sans-serif" font-size="55.866px" stroke="#000000" stroke-width="3.5473" style="line-height:1.25" xml:space="preserve"><tspan x="55.150673" y="315.83347" fill="#fefefe" font-family="'Cascadia Code'" font-size="55.866px" font-weight="bold" stroke="#000000" stroke-width="3.5473" style="font-variant-caps:normal;font-variant-east-asian:normal;font-variant-ligatures:normal;font-variant-numeric:normal">CSTAR</tspan></text>
  <a/>
  <g fill="#fffff3" font-family="sans-serif" font-size="11.753px" font-weight="bold" stroke-width=".29382">
   <text x="-18.297331" y="114.32114" style="font-variant-caps:normal;font-variant-east-asian:normal;font-variant-ligatures:normal;font-variant-numeric:normal;line-height:1.25" xml:space="preserve"><tspan x="-18.297331" y="114.32114" style="font-variant-caps:normal;font-variant-east-asian:normal;font-variant-ligatures:normal;font-variant-numeric:normal">Security &amp;</tspan><tspan x="-18.297331" y="129.01218" style="font-variant-caps:normal;font-variant-east-asian:normal;font-variant-ligatures:normal;font-variant-numeric:normal">Privacy</tspan></text>
   <text x="-7.393095" y="242.86911" style="font-variant-caps:normal;font-variant-east-asian:normal;font-variant-ligatures:normal;font-variant-numeric:normal;line-height:1.25" xml:space="preserve"><tspan x="-7.393095" y="242.86911">Algorithms</tspan><tspan x="-7.393095" y="257.56012">&amp; Complexity</tspan></text>
   <text x="78.267395" y="35.964638" style="font-variant-caps:normal;font-variant-east-asian:normal;font-variant-ligatures:normal;font-variant-numeric:normal;line-height:1.25" xml:space="preserve"><tspan x="78.267395" y="35.964638" style="font-variant-caps:normal;font-variant-east-asian:normal;font-variant-ligatures:normal;font-variant-numeric:normal">     Distributed &amp;</tspan><tspan x="78.267395" y="50.655647" style="font-variant-caps:normal;font-variant-east-asian:normal;font-variant-ligatures:normal;font-variant-numeric:normal">Parallel Computing</tspan></text>
   <text x="176.23589" y="244.1449" style="font-variant-caps:normal;font-variant-east-asian:normal;font-variant-ligatures:normal;font-variant-numeric:normal;line-height:1.25" xml:space="preserve"><tspan x="176.23589" y="244.1449" style="font-variant-caps:normal;font-variant-east-asian:normal;font-variant-ligatures:normal;font-variant-numeric:normal">           Theory for </tspan><tspan x="176.23589" y="258.83591" style="font-variant-caps:normal;font-variant-east-asian:normal;font-variant-ligatures:normal;font-variant-numeric:normal">Machine Learning</tspan></text>
   <text x="231.26053" y="139.29057" style="font-variant-caps:normal;font-variant-east-asian:normal;font-variant-ligatures:normal;font-variant-numeric:normal;line-height:1.25" xml:space="preserve"><tspan x="231.26053" y="139.29057" style="font-variant-caps:normal;font-variant-east-asian:normal;font-variant-ligatures:normal;font-variant-numeric:normal">   Quantum</tspan><tspan x="231.26053" y="153.98158" style="font-variant-caps:normal;font-variant-east-asian:normal;font-variant-ligatures:normal;font-variant-numeric:normal">Computing</tspan></text>
  </g>
  <a transform="translate(30.621 4.3744)" xlink:href="https://iiit.ac.in">
   <text x="-0.24840865" y="353.75385" fill="#000000" font-family="sans-serif" font-size="30.417px" stroke="#000000" stroke-width=".93013" style="line-height:1.25" xml:space="preserve"><tspan x="-0.24840865" y="353.75385" fill="#ffffff" stroke="#000000" stroke-width=".93013">IIIT Hyderabad</tspan></text>
  </a>
  <g transform="translate(30.621 9.4779)">
   <circle cx="195.81" cy="120.37" r="7.1218" fill="#008dff" style="paint-order:markers stroke fill"/>
   <circle cx="106.68" cy="55.558" r="7.1218" fill="#ff2700" style="paint-order:markers stroke fill"/>
   <circle cx="18.131" cy="120.54" r="7.1218" fill="#008dff" style="paint-order:markers stroke fill"/>
   <circle cx="107.23" cy="95.424" r="7.1218" fill="#008dff" style="paint-order:markers stroke fill"/>
   <circle cx="56.977" cy="129.61" r="7.1218" fill="#00ce00" style="paint-order:markers stroke fill"/>
   <circle cx="155.59" cy="130.22" r="7.1218" fill="#ff2700" style="paint-order:markers stroke fill"/>
   <circle cx="137.35" cy="187.05" r="7.1218" fill="#ff2700" style="paint-order:markers stroke fill"/>
   <circle cx="76.443" cy="187.1" r="7.1218" fill="#00ce00" style="paint-order:markers stroke fill"/>
   <circle cx="50.48" cy="225.8" r="7.1218" fill="#ff2700" style="paint-order:markers stroke fill"/>
   <circle cx="161.63" cy="225.88" r="7.1218" fill="#00ce00" style="paint-order:markers stroke fill"/>
  </g>
 </g>
</svg>
